<?xml version="1.0" encoding="UTF-8" standalone="no"?>
<!-- Created with Inkscape (http://www.inkscape.org/) -->

<svg
   xmlns:dc="http://purl.org/dc/elements/1.1/"
   xmlns:cc="http://creativecommons.org/ns#"
   xmlns:rdf="http://www.w3.org/1999/02/22-rdf-syntax-ns#"
   xmlns:svg="http://www.w3.org/2000/svg"
   xmlns="http://www.w3.org/2000/svg"
   xmlns:sodipodi="http://sodipodi.sourceforge.net/DTD/sodipodi-0.dtd"
   xmlns:inkscape="http://www.inkscape.org/namespaces/inkscape"
   width="512"
   height="512"
   viewBox="0 0 135.46666 135.46667"
   version="1.1"
   id="svg8"
   inkscape:version="0.92.2 (5c3e80d, 2017-08-06)"
   sodipodi:docname="dirt_block.svg"
   inkscape:export-filename="C:\Users\Paha\Google Drive\AllProjectFiles\Java\ToTheTop\android\data\img\dirt_block.png"
   inkscape:export-xdpi="96"
   inkscape:export-ydpi="96">
  <defs
     id="defs2" />
  <sodipodi:namedview
     id="base"
     pagecolor="#ffffff"
     bordercolor="#666666"
     borderopacity="1.0"
     inkscape:pageopacity="0.0"
     inkscape:pageshadow="2"
     inkscape:zoom="0.7"
     inkscape:cx="558.5112"
     inkscape:cy="218.76441"
     inkscape:document-units="px"
     inkscape:current-layer="layer1"
     showgrid="false"
     units="px"
     inkscape:window-width="1680"
     inkscape:window-height="987"
     inkscape:window-x="1912"
     inkscape:window-y="-8"
     inkscape:window-maximized="1" />
  <metadata
     id="metadata5">
    <rdf:RDF>
      <cc:Work
         rdf:about="">
        <dc:format>image/svg+xml</dc:format>
        <dc:type
           rdf:resource="http://purl.org/dc/dcmitype/StillImage" />
        <dc:title></dc:title>
      </cc:Work>
    </rdf:RDF>
  </metadata>
  <g
     inkscape:label="Layer 1"
     inkscape:groupmode="layer"
     id="layer1"
     transform="translate(0,-161.53332)">
    <rect
       style="opacity:1;fill:#74542e;fill-opacity:1;stroke:none;stroke-width:1.04068887;stroke-linejoin:miter;stroke-miterlimit:4;stroke-dasharray:none;stroke-dashoffset:0;stroke-opacity:1;paint-order:normal"
       id="rect5055"
       width="135.46666"
       height="135.46666"
       x="2.7270507e-006"
       y="161.53333" />
    <path
       style="opacity:1;fill:#148e14;fill-opacity:1;stroke:none;stroke-width:1.03319788;stroke-linejoin:miter;stroke-miterlimit:4;stroke-dasharray:none;stroke-dashoffset:0;stroke-opacity:1;paint-order:normal"
       d="M 2.7270507e-6,161.53333 H 135.69345 v 27.36547 c -29.04683,-4.11805 -63.978574,4.98519 -93.837441,6.52016 C 26.02217,196.23294 13.50783,190.53248 2.7270507e-6,188.8988 Z"
       id="rect5057"
       inkscape:connector-curvature="0"
       sodipodi:nodetypes="cccscc" />
    <path
       style="fill:none;stroke:#000000;stroke-width:1.32291663;stroke-linecap:butt;stroke-linejoin:miter;stroke-miterlimit:4;stroke-dasharray:none;stroke-opacity:1"
       d="M 2.7270507e-6,188.8988 C 4.7295158,188.8988 7.4493313,189.84158 10.829696,190.9991 c 34.692951,11.87971 77.524043,-3.69722 112.857814,-2.67103 4.20178,0.12204 6.69011,0.57073 12.00594,0.57073"
       id="path5059"
       inkscape:connector-curvature="0"
       sodipodi:nodetypes="cssc" />
    <rect
       y="161.53333"
       x="2.7270507e-006"
       height="135.46666"
       width="135.46666"
       id="rect5074"
       style="opacity:1;fill:#74542e;fill-opacity:1;stroke:none;stroke-width:1.04068887;stroke-linejoin:miter;stroke-miterlimit:4;stroke-dasharray:none;stroke-dashoffset:0;stroke-opacity:1;paint-order:normal" />
    <path
       sodipodi:nodetypes="cccscc"
       inkscape:connector-curvature="0"
       id="path5076"
       d="M 2.7270507e-6,161.53333 H 135.69345 v 27.36547 c -29.04683,-4.11805 -63.978574,4.98519 -93.837441,6.52016 C 26.02217,196.23294 13.50783,190.53248 2.7270507e-6,188.8988 Z"
       style="opacity:1;fill:#148e14;fill-opacity:1;stroke:none;stroke-width:1.03319788;stroke-linejoin:miter;stroke-miterlimit:4;stroke-dasharray:none;stroke-dashoffset:0;stroke-opacity:1;paint-order:normal" />
    <path
       sodipodi:nodetypes="cssc"
       inkscape:connector-curvature="0"
       id="path5078"
       d="M 2.7270507e-6,188.8988 C 2.7923878,189.08779 8.2525307,190.21956 10.829696,190.9991 c 35.099946,10.61707 77.524043,-3.69722 112.857814,-2.67103 4.20178,0.12204 6.59562,0.004 12.00594,0.57073"
       style="fill:none;stroke:#000000;stroke-width:1.32291663;stroke-linecap:butt;stroke-linejoin:miter;stroke-miterlimit:4;stroke-dasharray:none;stroke-opacity:1" />
    <rect
       y="161.53333"
       x="2.7270507e-006"
       height="135.46666"
       width="135.46666"
       id="rect5080"
       style="opacity:1;fill:#74542e;fill-opacity:1;stroke:none;stroke-width:1.04068887;stroke-linejoin:miter;stroke-miterlimit:4;stroke-dasharray:none;stroke-dashoffset:0;stroke-opacity:1;paint-order:normal" />
    <path
       sodipodi:nodetypes="cccscc"
       inkscape:connector-curvature="0"
       id="path5082"
       d="M 2.7270507e-6,161.53333 H 135.69345 v 27.36547 c -29.04683,-4.11805 -63.978574,4.98519 -93.837441,6.52016 C 26.02217,196.23294 13.50783,190.53248 2.7270507e-6,188.8988 Z"
       style="opacity:1;fill:#148e14;fill-opacity:1;stroke:none;stroke-width:1.03319788;stroke-linejoin:miter;stroke-miterlimit:4;stroke-dasharray:none;stroke-dashoffset:0;stroke-opacity:1;paint-order:normal" />
    <path
       sodipodi:nodetypes="cssc"
       inkscape:connector-curvature="0"
       id="path5084"
       d="M 2.7270507e-6,188.8988 C 4.7295158,188.8988 7.4493313,189.84158 10.829696,190.9991 c 34.692951,11.87971 77.524043,-3.69722 112.857814,-2.67103 4.20178,0.12204 6.69011,0.57073 12.00594,0.57073"
       style="fill:none;stroke:#000000;stroke-width:1.32291663;stroke-linecap:butt;stroke-linejoin:miter;stroke-miterlimit:4;stroke-dasharray:none;stroke-opacity:1" />
    <rect
       style="opacity:1;fill:#74542e;fill-opacity:1;stroke:none;stroke-width:1.04068887;stroke-linejoin:miter;stroke-miterlimit:4;stroke-dasharray:none;stroke-dashoffset:0;stroke-opacity:1;paint-order:normal"
       id="rect5086"
       width="135.46666"
       height="135.46666"
       x="2.7270507e-006"
       y="161.53333" />
    <path
       style="opacity:1;fill:#148e14;fill-opacity:1;stroke:none;stroke-width:1.03319788;stroke-linejoin:miter;stroke-miterlimit:4;stroke-dasharray:none;stroke-dashoffset:0;stroke-opacity:1;paint-order:normal"
       d="M 2.7270507e-6,161.53333 H 135.69345 v 27.36547 c -29.04683,-4.11805 -63.978574,4.98519 -93.837441,6.52016 C 26.02217,196.23294 13.50783,190.53248 2.7270507e-6,188.8988 Z"
       id="path5088"
       inkscape:connector-curvature="0"
       sodipodi:nodetypes="cccscc" />
    <path
       style="fill:none;stroke:#000000;stroke-width:1.32291663;stroke-linecap:butt;stroke-linejoin:miter;stroke-miterlimit:4;stroke-dasharray:none;stroke-opacity:1"
       d="M 2.7270507e-6,188.8988 C 2.7923878,189.08779 8.2525307,190.21956 10.829696,190.9991 c 35.099946,10.61707 77.524043,-3.69722 112.857814,-2.67103 4.20178,0.12204 6.59562,0.004 12.00594,0.57073"
       id="path5090"
       inkscape:connector-curvature="0"
       sodipodi:nodetypes="cssc" />
  </g>
</svg>
